<?xml version="1.0" encoding="UTF-8" standalone="no"?>
<!DOCTYPE svg PUBLIC "-//W3C//DTD SVG 1.1//EN" "http://www.w3.org/Graphics/SVG/1.1/DTD/svg11.dtd">
<svg width="100%" height="100%" viewBox="0 0 1000 1001" version="1.1" xmlns="http://www.w3.org/2000/svg" xmlns:xlink="http://www.w3.org/1999/xlink" xml:space="preserve" xmlns:serif="http://www.serif.com/" style="fill-rule:evenodd;clip-rule:evenodd;stroke-linejoin:round;stroke-miterlimit:2;">
    <rect id="Easy-Search" serif:id="Easy Search" x="0" y="0.016" width="1000" height="1000" style="fill:none;"/>
    <path d="M995,401.016C995,182.457 817.558,5.016 599,5.016L401,5.016C182.442,5.016 5,182.457 5,401.016L5,599.016C5,817.574 182.442,995.016 401,995.016L599,995.016C817.558,995.016 995,817.574 995,599.016L995,401.016Z" style="fill:url(#_Linear1);"/>
    <path d="M480.153,5.016L599,5.016C616.506,5.016 633.749,6.154 650.662,8.362C650.2,27.103 649.908,47.568 649.908,70.374C649.908,70.374 646.643,285.832 653.172,334.799C676.024,328.27 711.933,302.154 747.843,246.658C770.694,214.012 813.133,204.219 835.985,220.542C871.894,240.129 871.894,282.567 855.572,311.948C819.662,387.031 777.223,435.999 662.966,475.173C662.966,605.753 653.172,795.095 414.863,831.005C209.199,860.385 117.793,742.863 117.793,641.663C117.793,481.702 277.754,435.999 506.269,377.238L509.534,292.361C509.534,292.361 457.302,360.915 326.721,357.651C191.282,355.095 113.855,270.523 81.913,166.573C118.667,116.655 166.845,75.659 222.575,47.454C225.928,132.048 256.12,204.024 326.721,200.954C398.54,200.954 480.153,171.574 480.153,14.877L480.153,5.016ZM529.121,501.289C411.598,527.405 267.96,563.315 267.96,635.134C267.96,703.689 339.779,713.482 398.54,703.689C519.327,677.573 532.385,605.753 529.121,501.289Z" style="fill:white;fill-rule:nonzero;"/>
    <defs>
        <linearGradient id="_Linear1" x1="0" y1="0" x2="1" y2="0" gradientUnits="userSpaceOnUse" gradientTransform="matrix(983.882,983.882,-983.882,983.882,0.271723,4.072)"><stop offset="0" style="stop-color:rgb(255,65,54);stop-opacity:1"/><stop offset="1" style="stop-color:rgb(239,11,0);stop-opacity:1"/></linearGradient>
    </defs>
</svg>
